<?xml version="1.0" encoding="utf-8"?>
<!-- Generator: Adobe Illustrator 27.8.0, SVG Export Plug-In . SVG Version: 6.00 Build 0)  -->
<svg version="1.1" id="amac-logo-color-rgb" xmlns="http://www.w3.org/2000/svg" xmlns:xlink="http://www.w3.org/1999/xlink"
	 x="0px" y="0px" viewBox="0 0 633 190.6" style="enable-background:new 0 0 633 190.6;" xml:space="preserve">
<style type="text/css">
	.st0{fill:#EFCA6C;}
	.st1{fill:#20201F;}
	.st2{fill:#20201F;stroke:#20201F;stroke-width:5;stroke-linecap:round;stroke-linejoin:round;stroke-miterlimit:10;}
</style>
<path class="st0" d="M257.3,17.1c-14.2,0-26.9-6.4-35.3-16.5c-0.7-0.8-1.9-0.8-2.5,0c-8.5,10.1-21.1,16.5-35.3,16.5
	c-8,0-16.9-1.7-23.4-5.3c-1.3-0.7-2.9,0.5-2.4,2l13.2,35.3c0.2,0.7,0.9,1.1,1.6,1.1h47.6h47.6c0.7,0,1.3-0.5,1.6-1.1l13.4-35.6
	c0.5-1.4-1.1-2.7-2.4-2C274.4,15.1,265.3,17.1,257.3,17.1z"/>
<g>
	<path class="st1" d="M0,190.6l45.1-120h26l45.1,120H89.7L82.5,170H33.1l-7.3,20.6H0z M57.6,101l-16.6,46.8h33.5L58,101H57.6z"/>
	<path class="st1" d="M195.3,170h-20.6v-45.1c0-8.4-3-14.9-12.2-14.9c-9.6,0-14.8,6.2-14.8,16.4V170h-20.6V94h19v9.3
		c3.5-6.5,11-11,21.9-11c10.3,0,17.7,4.1,22,10.7c6.7-7.4,14.4-10.7,25.2-10.7c18.3,0,27.6,12.6,27.6,30.3V170h-20.6v-45.1
		c0-8.4-3-14.9-12.2-14.9c-9.7,0-14.8,6.2-14.8,16.8V170z"/>
	<path class="st1" d="M335,94v76h-19v-9.3c-4.8,7-13.3,11-24.1,11c-22,0-34.9-17.7-34.9-39.7s12.9-39.7,34.9-39.7
		c10.7,0,19.3,4.1,24.1,11V94H335z M296.3,110.4c-11.5,0-18.7,9.3-18.7,21.6s7.2,21.6,18.7,21.6c11.5,0,18.7-9.3,18.7-21.6
		S307.7,110.4,296.3,110.4z"/>
	<path class="st1" d="M387.2,92.2c23.6,0,34.8,16.7,36.3,29.6h-21.2c-1.6-6.5-7.7-11.3-15.2-11.3c-11,0-17.4,8.7-17.4,21.5
		s6.4,21.5,17.4,21.5c7.5,0,13.6-4.8,15.2-11.3h21.2c-1.5,12.9-12.6,29.6-36.3,29.6c-22,0-38.1-17.1-38.1-39.7
		C349,109.3,365.1,92.2,387.2,92.2z"/>
</g>
<g>
	<g>
		<path class="st1" d="M538.2,164.8v-17.3h6.4c0.8,0,1.6,0.1,2.3,0.4c0.7,0.3,1.3,0.7,1.8,1.2c0.5,0.5,0.9,1.1,1.2,1.8
			c0.3,0.7,0.4,1.5,0.4,2.3v0c0,0.8-0.1,1.6-0.4,2.3c-0.3,0.7-0.7,1.3-1.2,1.8c-0.5,0.5-1.1,0.9-1.8,1.2c-0.7,0.3-1.5,0.4-2.3,0.4
			h-3.8v5.9H538.2z M543.9,149.8h-3.1v6.9h3.1c1.2,0,2.1-0.3,2.7-0.9c0.6-0.6,1-1.4,1-2.5v0c0-1.1-0.3-1.9-1-2.5
			C546,150.1,545.1,149.8,543.9,149.8z"/>
		<path class="st1" d="M552.8,164.8v-12.6h2.6v2.2h0.1c0.2-0.7,0.6-1.3,1.1-1.8c0.5-0.4,1.1-0.6,1.8-0.6c0.2,0,0.4,0,0.5,0
			c0.2,0,0.3,0,0.4,0.1v2.4c-0.1,0-0.3-0.1-0.5-0.1c-0.2,0-0.4,0-0.7,0c-0.8,0-1.5,0.3-2,0.8c-0.5,0.5-0.7,1.3-0.7,2.2v7.5H552.8z"
			/>
		<path class="st1" d="M566.3,165c-1.2,0-2.3-0.3-3.2-0.8c-0.9-0.5-1.6-1.3-2-2.3c-0.5-1-0.7-2.1-0.7-3.5v0c0-1,0.1-1.9,0.4-2.7
			c0.3-0.8,0.7-1.5,1.2-2.1c0.5-0.6,1.1-1,1.8-1.3c0.7-0.3,1.5-0.5,2.4-0.5c1.2,0,2.2,0.3,3.1,0.8c0.9,0.5,1.5,1.3,2,2.2
			c0.5,1,0.7,2.1,0.7,3.3v0.9h-8.9c0,1.2,0.3,2.1,1,2.8c0.6,0.7,1.4,1,2.5,1c0.5,0,1-0.1,1.4-0.2c0.4-0.2,0.7-0.4,1-0.6
			c0.3-0.3,0.4-0.6,0.5-0.9l0-0.1h2.5l0,0.1c-0.1,0.5-0.3,1-0.6,1.4c-0.3,0.5-0.7,0.9-1.1,1.2c-0.5,0.4-1,0.6-1.6,0.9
			C567.7,164.9,567,165,566.3,165z M566.1,154.1c-0.6,0-1.1,0.1-1.5,0.4c-0.5,0.2-0.8,0.6-1.1,1.1s-0.5,1.1-0.6,1.8h6.3
			c-0.1-1.1-0.4-1.9-1-2.4C567.7,154.3,567,154.1,566.1,154.1z"/>
		<path class="st1" d="M574.5,164.8v-12.6h2.6v2h0.1c0.3-0.7,0.7-1.2,1.3-1.6s1.3-0.6,2.2-0.6c0.9,0,1.6,0.2,2.2,0.6
			c0.6,0.4,1,1,1.3,1.8h0.1c0.3-0.8,0.8-1.4,1.5-1.8c0.7-0.4,1.5-0.7,2.4-0.7c0.8,0,1.6,0.2,2.2,0.5c0.6,0.3,1.1,0.8,1.4,1.5
			c0.3,0.6,0.5,1.4,0.5,2.2v8.7h-2.6v-8c0-0.8-0.2-1.5-0.6-1.9c-0.4-0.5-1-0.7-1.8-0.7c-0.5,0-1,0.1-1.4,0.4c-0.4,0.2-0.7,0.6-0.9,1
			c-0.2,0.4-0.3,0.9-0.3,1.4v7.9h-2.5v-8.2c0-0.7-0.2-1.3-0.6-1.8c-0.4-0.4-1-0.6-1.7-0.6c-0.5,0-1,0.1-1.4,0.4
			c-0.4,0.2-0.7,0.6-0.9,1c-0.2,0.4-0.3,0.9-0.3,1.5v7.8H574.5z"/>
		<path class="st1" d="M596.7,150.2c-0.3,0-0.5-0.1-0.8-0.2c-0.2-0.1-0.4-0.3-0.5-0.5c-0.1-0.2-0.2-0.5-0.2-0.7
			c0-0.3,0.1-0.5,0.2-0.8c0.1-0.2,0.3-0.4,0.5-0.5c0.2-0.1,0.5-0.2,0.8-0.2c0.3,0,0.5,0.1,0.8,0.2c0.2,0.1,0.4,0.3,0.5,0.5
			c0.1,0.2,0.2,0.5,0.2,0.8c0,0.3-0.1,0.5-0.2,0.7c-0.1,0.2-0.3,0.4-0.5,0.5C597.3,150.2,597,150.2,596.7,150.2z M595.4,164.8v-12.6
			h2.6v12.6H595.4z"/>
		<path class="st1" d="M605.6,165c-0.9,0-1.7-0.2-2.4-0.6c-0.7-0.4-1.1-0.9-1.5-1.6c-0.3-0.7-0.5-1.5-0.5-2.5v-8.2h2.6v7.7
			c0,1,0.2,1.7,0.7,2.2c0.4,0.5,1.1,0.8,2,0.8c0.6,0,1.1-0.1,1.6-0.4c0.4-0.3,0.8-0.7,1-1.1c0.2-0.5,0.4-1.1,0.4-1.7v-7.4h2.6v12.6
			h-2.6v-1.9h-0.1c-0.3,0.6-0.8,1.1-1.5,1.5C607.3,164.8,606.5,165,605.6,165z"/>
		<path class="st1" d="M615.3,164.8v-12.6h2.6v2h0.1c0.3-0.7,0.7-1.2,1.3-1.6s1.3-0.6,2.2-0.6c0.9,0,1.6,0.2,2.2,0.6
			c0.6,0.4,1,1,1.3,1.8h0.1c0.3-0.8,0.8-1.4,1.5-1.8c0.7-0.4,1.5-0.7,2.4-0.7c0.8,0,1.6,0.2,2.2,0.5c0.6,0.3,1.1,0.8,1.4,1.5
			c0.3,0.6,0.5,1.4,0.5,2.2v8.7h-2.6v-8c0-0.8-0.2-1.5-0.6-1.9c-0.4-0.5-1-0.7-1.8-0.7c-0.5,0-1,0.1-1.4,0.4c-0.4,0.2-0.7,0.6-0.9,1
			c-0.2,0.4-0.3,0.9-0.3,1.4v7.9h-2.5v-8.2c0-0.7-0.2-1.3-0.6-1.8c-0.4-0.4-1-0.6-1.7-0.6c-0.5,0-1,0.1-1.4,0.4
			c-0.4,0.2-0.7,0.6-0.9,1c-0.2,0.4-0.3,0.9-0.3,1.5v7.8H615.3z"/>
		<path class="st1" d="M546.4,190.4v-17.3h6.4c0.8,0,1.6,0.1,2.3,0.4c0.7,0.3,1.3,0.7,1.8,1.2c0.5,0.5,0.9,1.1,1.2,1.8
			c0.3,0.7,0.4,1.5,0.4,2.3v0c0,0.8-0.1,1.6-0.4,2.3c-0.3,0.7-0.7,1.3-1.2,1.8c-0.5,0.5-1.1,0.9-1.8,1.2c-0.7,0.3-1.5,0.4-2.3,0.4
			h-3.8v5.9H546.4z M552.1,175.3h-3.1v6.9h3.1c1.2,0,2.1-0.3,2.7-0.9c0.6-0.6,1-1.4,1-2.5v0c0-1.1-0.3-1.9-1-2.5
			C554.2,175.6,553.3,175.3,552.1,175.3z"/>
		<path class="st1" d="M564.2,190.6c-0.8,0-1.6-0.2-2.2-0.5c-0.6-0.3-1.1-0.8-1.5-1.3c-0.4-0.6-0.5-1.2-0.5-2v0c0-1.1,0.4-2,1.2-2.6
			c0.8-0.6,2-1,3.5-1.1l3.4-0.2v-0.9c0-0.7-0.2-1.2-0.6-1.6c-0.4-0.4-1.1-0.6-1.9-0.6c-0.8,0-1.4,0.2-1.8,0.5s-0.7,0.7-0.8,1.2
			l0,0.1h-2.4l0-0.1c0.1-0.7,0.3-1.4,0.7-2c0.4-0.6,1-1,1.8-1.4c0.8-0.3,1.6-0.5,2.7-0.5c1,0,1.9,0.2,2.7,0.5
			c0.8,0.3,1.3,0.8,1.7,1.4c0.4,0.6,0.6,1.4,0.6,2.2v8.7h-2.6v-2h0c-0.4,0.7-0.9,1.2-1.6,1.6C565.8,190.4,565,190.6,564.2,190.6z
			 M562.6,186.7c0,0.6,0.2,1,0.6,1.3s1,0.5,1.7,0.5c0.6,0,1.2-0.1,1.6-0.4c0.5-0.3,0.9-0.6,1.1-1c0.3-0.4,0.4-0.9,0.4-1.5v-1
			l-3.1,0.2c-0.8,0-1.4,0.2-1.8,0.6C562.8,185.7,562.6,186.2,562.6,186.7L562.6,186.7z"/>
		<path class="st1" d="M573.7,190.4v-12.6h2.6v2.2h0.1c0.2-0.7,0.6-1.3,1.1-1.8c0.5-0.4,1.1-0.6,1.8-0.6c0.2,0,0.4,0,0.5,0
			c0.2,0,0.3,0,0.4,0.1v2.4c-0.1,0-0.3-0.1-0.5-0.1c-0.2,0-0.4,0-0.7,0c-0.8,0-1.5,0.3-2,0.8c-0.5,0.5-0.7,1.3-0.7,2.2v7.5H573.7z"
			/>
		<path class="st1" d="M587.6,190.6c-1.2,0-2.2-0.3-2.8-0.8s-0.9-1.5-0.9-2.7v-7.2h-1.8v-2.1h1.8v-3.3h2.6v3.3h2.4v2.1h-2.4v7.1
			c0,0.6,0.1,1.1,0.4,1.3c0.3,0.2,0.7,0.4,1.2,0.4c0.1,0,0.3,0,0.4,0c0.1,0,0.2,0,0.3,0v2c-0.2,0-0.3,0-0.6,0.1
			C588.1,190.6,587.9,190.6,587.6,190.6z"/>
		<path class="st1" d="M591.7,190.4v-12.6h2.6v1.9h0.1c0.3-0.6,0.8-1.2,1.5-1.6c0.6-0.4,1.4-0.6,2.4-0.6c0.9,0,1.7,0.2,2.4,0.6
			c0.6,0.4,1.1,0.9,1.5,1.6s0.5,1.5,0.5,2.5v8.2H600v-7.7c0-1-0.2-1.7-0.7-2.2c-0.4-0.5-1.1-0.8-2-0.8c-0.6,0-1.1,0.1-1.6,0.4
			c-0.4,0.3-0.8,0.7-1,1.2c-0.2,0.5-0.4,1.1-0.4,1.7v7.3H591.7z"/>
		<path class="st1" d="M611.1,190.6c-1.2,0-2.3-0.3-3.2-0.8c-0.9-0.5-1.6-1.3-2-2.3c-0.5-1-0.7-2.1-0.7-3.5v0c0-1,0.1-1.9,0.4-2.7
			s0.7-1.5,1.2-2.1s1.1-1,1.8-1.3c0.7-0.3,1.5-0.5,2.4-0.5c1.2,0,2.2,0.3,3.1,0.8s1.5,1.3,2,2.2c0.5,1,0.7,2.1,0.7,3.3v0.9h-8.9
			c0,1.2,0.3,2.1,1,2.8c0.6,0.7,1.4,1,2.5,1c0.5,0,1-0.1,1.4-0.2c0.4-0.2,0.7-0.4,1-0.6c0.3-0.3,0.4-0.6,0.5-0.9l0-0.1h2.5l0,0.1
			c-0.1,0.5-0.3,1-0.6,1.4c-0.3,0.5-0.7,0.9-1.1,1.2c-0.5,0.4-1,0.6-1.6,0.9C612.5,190.5,611.8,190.6,611.1,190.6z M610.9,179.6
			c-0.6,0-1.1,0.1-1.5,0.4c-0.5,0.2-0.8,0.6-1.1,1.1s-0.5,1.1-0.6,1.8h6.3c-0.1-1.1-0.4-1.9-1-2.4
			C612.5,179.9,611.8,179.6,610.9,179.6z"/>
		<path class="st1" d="M619.3,190.4v-12.6h2.6v2.2h0.1c0.2-0.7,0.6-1.3,1.1-1.8c0.5-0.4,1.1-0.6,1.8-0.6c0.2,0,0.4,0,0.5,0
			c0.2,0,0.3,0,0.4,0.1v2.4c-0.1,0-0.3-0.1-0.5-0.1c-0.2,0-0.4,0-0.7,0c-0.8,0-1.5,0.3-2,0.8c-0.5,0.5-0.7,1.3-0.7,2.2v7.5H619.3z"
			/>
	</g>
	<g>
		<path class="st1" d="M601.4,69.8c-6.7-0.5-12.3,3.7-15.5,3.7c-3.2,0-8.1-3.6-13.4-3.5c-6.9,0.1-13.2,4-16.7,10.1
			c-7.1,12.4-1.8,30.7,5.1,40.8c3.4,4.9,7.5,10.4,12.8,10.2c5.1-0.2,7.1-3.3,13.3-3.3c6.2,0,7.9,3.3,13.4,3.2c5.5-0.1,9-5,12.4-9.9
			c3.9-5.7,5.5-11.2,5.6-11.5c-0.1,0-10.8-4.1-10.9-16.4c-0.1-10.2,8.4-15.2,8.7-15.4C611.5,70.7,604,69.9,601.4,69.8z"/>
		<path class="st1" d="M597.3,63.1c2.8-3.4,4.7-8.2,4.2-12.9c-4.1,0.2-9,2.7-11.9,6.1c-2.6,3-4.9,7.9-4.3,12.5
			C589.9,69.2,594.5,66.5,597.3,63.1z"/>
	</g>
</g>
<line class="st2" x1="480.8" y1="50.2" x2="480.8" y2="186.6"/>
</svg>
